<?xml version="1.0" standalone="no"?>
<!DOCTYPE svg PUBLIC "-//W3C//DTD SVG 20010904//EN"
 "http://www.w3.org/TR/2001/REC-SVG-20010904/DTD/svg10.dtd">
<svg version="1.0" xmlns="http://www.w3.org/2000/svg"
 width="270.000000pt" height="270.000000pt" viewBox="0 0 270.000000 270.000000"
 preserveAspectRatio="xMidYMid meet">
<metadata>
Created by potrace 1.11, written by Peter Selinger 2001-2013
</metadata>
<g transform="translate(0.000000,270.000000) scale(0.100000,-0.100000)"
fill="#000000" stroke="none">
<path d="M545 2423 c-18 -17 -32 -48 -39 -86 -2 -12 -11 -51 -20 -87 -26 -109
-58 -321 -72 -480 -8 -84 -7 -428 0 -511 9 -96 17 -171 22 -199 2 -14 8 -56
13 -95 35 -245 143 -652 185 -693 35 -35 64 -22 271 126 33 23 69 49 80 57
124 87 130 96 108 165 -31 101 -92 317 -97 345 -3 17 -10 45 -16 64 -5 19 -8
36 -6 38 1 2 25 -29 51 -69 84 -127 273 -348 297 -348 5 0 58 36 116 79 59 44
124 93 146 108 21 15 54 43 73 60 31 29 34 37 32 80 -1 27 -6 57 -9 68 -12 34
-21 125 -13 125 4 0 28 -19 53 -41 51 -47 137 -99 162 -99 15 0 336 226 386
273 22 20 28 59 16 92 -4 9 -81 66 -172 127 -201 134 -210 134 -184 6 10 -50
4 -59 -22 -33 -8 8 -17 15 -21 15 -4 0 -12 6 -20 13 -7 7 -26 25 -43 39 -63
53 -136 170 -155 249 -5 21 -43 50 -171 133 -91 59 -175 106 -188 106 -33 0
-68 -35 -69 -68 -1 -15 -2 -40 -4 -57 -7 -62 -19 -292 -18 -340 l1 -50 -20 25
c-33 41 -145 278 -177 375 -42 127 -57 206 -60 311 -1 41 -2 42 -63 68 -35 15
-72 31 -83 36 -108 48 -216 90 -233 90 -11 0 -28 -7 -37 -17z"/>
</g>
</svg>
